<svg width="18px" height="18px" viewBox="0 0 18 18" version="1.1" xmlns="http://www.w3.org/2000/svg" xmlns:xlink="http://www.w3.org/1999/xlink">
    <g id="Welcome" stroke="none" stroke-width="1" fill="none" fill-rule="evenodd">
        <g id="Desktop---Technologies" transform="translate(-59.000000, -194.000000)" fill="#B7B8CF">
            <g id="Group-2" transform="translate(59.000000, 189.000000)">
                <path d="M12.3901875,10.101875 C12.12075,9.944375 11.7770625,10.04 11.6218125,10.304375 L8.024625,16.536875 L6.012,14.680625 C5.799375,14.455625 5.4433125,14.444375 5.216625,14.658125 C4.9899375,14.86625 4.978125,15.22625 5.19075,15.45125 L7.7625,17.825 C7.9745625,18.05 8.330625,18.06125 8.5573125,17.8475 C8.6259375,17.785625 12.5960625,10.866875 12.5960625,10.866875 C12.7513125,10.6025 12.6590625,10.25375 12.3901875,10.101875 L12.3901875,10.101875 Z M9,21.875 C4.65075,21.875 1.125,18.348125 1.125,14 C1.125,9.651875 4.65075,6.125 9,6.125 C13.34925,6.125 16.875,9.651875 16.875,14 C16.875,18.348125 13.34925,21.875 9,21.875 L9,21.875 Z M9,5 C4.02975,5 0,9.0275 0,14 C0,18.9725 4.02975,23 9,23 C13.97025,23 18,18.9725 18,14 C18,9.0275 13.97025,5 9,5 L9,5 Z" id="Fill-22"></path>
            </g>
        </g>
    </g>
</svg>
