
<svg width="30px" height="26px" viewBox="0 0 30 26" version="1.1" xmlns="http://www.w3.org/2000/svg" xmlns:xlink="http://www.w3.org/1999/xlink">
    <g id="Welcome" stroke="none" stroke-width="1" fill="none" fill-rule="evenodd">
        <g id="Desktop---Technologies" transform="translate(-206.000000, -374.000000)" fill="#FFFFFE">
            <g id="columns" transform="translate(152.000000, 368.000000)">
                <path d="M83.7204216,18.5396482 L77.7294216,13.6966482 C77.3354216,13.3126482 76.6964216,13.3126482 76.3034216,13.6966482 C75.9094216,14.0806482 75.9094216,14.7026482 76.3034216,15.0876482 L81.4944216,19.2846482 L76.3034216,23.4826482 C75.9094216,23.8656482 75.9094216,24.4886482 76.3034216,24.8726482 C76.6964216,25.2576482 77.3354216,25.2576482 77.7294216,24.8726482 L83.7204216,20.0296482 C83.9304216,19.8246482 84.0194216,19.5526482 84.0054216,19.2846482 C84.0194216,19.0166482 83.9304216,18.7436482 83.7204216,18.5396482 L83.7204216,18.5396482 Z M61.7034216,23.4816482 L56.5124216,19.2846482 L61.7034216,15.0876482 C62.0974216,14.7026482 62.0974216,14.0796482 61.7034216,13.6966482 C61.3104216,13.3116482 60.6714216,13.3116482 60.2774216,13.6966482 L54.2864216,18.5396482 C54.0764216,18.7436482 53.9874216,19.0166482 54.0014216,19.2846482 C53.9874216,19.5526482 54.0764216,19.8246482 54.2864216,20.0296482 L60.2774216,24.8726482 C60.6714216,25.2576482 61.3104216,25.2576482 61.7034216,24.8726482 C62.0974216,24.4886482 62.0974216,23.8656482 61.7034216,23.4816482 L61.7034216,23.4816482 Z M75.9634216,6.13164822 C75.4844216,5.86064822 74.8734216,6.02164822 74.5974216,6.48964822 L62.0974216,30.5766482 C61.8204216,31.0456482 61.9354216,31.7626482 62.4634216,31.9156482 C63.1084216,32.1026482 63.5534216,32.0266482 63.8294216,31.5576482 L76.3294216,7.46964822 C76.6054216,7.00064822 76.4414216,6.40264822 75.9634216,6.13164822 L75.9634216,6.13164822 Z" id="Fill-99"></path>
            </g>
        </g>
    </g>
</svg>
